<?xml version="1.0" standalone="no"?>
<!DOCTYPE svg PUBLIC "-//W3C//DTD SVG 20010904//EN"
 "http://www.w3.org/TR/2001/REC-SVG-20010904/DTD/svg10.dtd">
<svg version="1.0" xmlns="http://www.w3.org/2000/svg"
 width="600.000000pt" height="600.000000pt" viewBox="0 0 600.000000 600.000000"
 preserveAspectRatio="xMidYMid meet">
<metadata>
Created by potrace 1.11, written by Peter Selinger 2001-2013
</metadata>
<g transform="translate(0.000000,600.000000) scale(0.100000,-0.100000)"
fill="#000000" stroke="none">
<path d="M2810 5983 c-720 -48 -1389 -345 -1894 -841 -503 -494 -796 -1090
-887 -1802 -18 -138 -18 -542 0 -680 87 -681 361 -1260 824 -1737 218 -224
439 -394 702 -541 798 -445 1799 -490 2645 -121 518 227 969 606 1290 1084
256 383 419 826 481 1315 18 138 18 542 0 680 -87 681 -364 1265 -826 1739
-284 291 -583 500 -945 659 -423 187 -932 276 -1390 245z m2247 -1047 c1 -1
10 -49 19 -107 23 -143 24 -400 1 -491 -39 -159 -114 -276 -272 -426 l-106
-100 36 -47 c55 -73 68 -110 69 -200 1 -63 -4 -90 -22 -130 -28 -62 -98 -155
-116 -155 -8 0 -21 23 -31 53 -54 166 -168 301 -315 375 -73 36 -160 64 -273
87 -40 8 -26 22 60 62 147 68 296 89 412 59 l53 -13 38 48 c152 193 220 382
220 616 0 101 -22 319 -36 367 -6 18 -1 19 127 12 73 -4 134 -8 136 -10z
m-1132 -1205 c287 -59 505 -236 601 -487 36 -93 44 -242 20 -347 -68 -285
-340 -591 -796 -892 -201 -133 -312 -197 -550 -316 -487 -243 -935 -399 -1229
-429 -361 -36 -683 -17 -938 55 -96 28 -279 112 -306 143 -16 18 -14 19 81 31
518 66 1021 308 1396 671 185 180 314 341 566 710 296 432 421 586 575 710
190 151 361 196 580 151z"/>
<path d="M3709 3606 c-146 -41 -295 -143 -414 -286 -77 -93 -131 -177 -225
-350 -254 -469 -639 -872 -1077 -1127 -59 -35 -102 -63 -95 -63 23 0 213 81
339 144 229 114 429 261 599 437 103 107 169 191 284 359 115 168 177 245 299
368 207 209 433 360 566 379 25 3 45 8 45 12 0 12 -236 141 -255 140 -11 0
-41 -6 -66 -13z"/>
</g>
</svg>
