<?xml version="1.0" encoding="UTF-8" standalone="no"?>
<!DOCTYPE svg PUBLIC "-//W3C//DTD SVG 1.1//EN" "http://www.w3.org/Graphics/SVG/1.1/DTD/svg11.dtd">
<svg version="1.1" xmlns="http://www.w3.org/2000/svg" xmlns:xlink="http://www.w3.org/1999/xlink" preserveAspectRatio="xMidYMid meet" viewBox="0 0 640 640" width="640" height="640"><defs><path d="M293.96 322.78C293.96 403.46 228.46 468.96 147.78 468.96C67.1 468.96 1.6 403.46 1.6 322.78C1.6 242.1 67.1 176.6 147.78 176.6C228.46 176.6 293.96 242.1 293.96 322.78Z" id="aVeYE3hHk"></path><path d="M526.57 147.18C526.57 227.86 461.07 293.36 380.39 293.36C299.71 293.36 234.21 227.86 234.21 147.18C234.21 66.5 299.71 1 380.39 1C461.07 1 526.57 66.5 526.57 147.18Z" id="c5KZeV2I9M"></path><path d="M562.65 436.54C562.65 517.22 497.15 582.72 416.47 582.72C335.79 582.72 270.29 517.22 270.29 436.54C270.29 355.86 335.79 290.36 416.47 290.36C497.15 290.36 562.65 355.86 562.65 436.54Z" id="f7ZQQwZ9rW"></path></defs><g><g><g><use xlink:href="#aVeYE3hHk" opacity="1" fill="#fb7373" fill-opacity="1"></use></g><g><use xlink:href="#c5KZeV2I9M" opacity="1" fill="#6ab4ff" fill-opacity="1"></use></g><g><use xlink:href="#f7ZQQwZ9rW" opacity="1" fill="#56c362" fill-opacity="1"></use></g></g></g></svg>