<?xml version="1.0" encoding="UTF-8" standalone="no"?>
<!DOCTYPE svg PUBLIC "-//W3C//DTD SVG 1.1//EN" "http://www.w3.org/Graphics/SVG/1.1/DTD/svg11.dtd">
<svg version="1.1" xmlns="http://www.w3.org/2000/svg" xmlns:xlink="http://www.w3.org/1999/xlink" preserveAspectRatio="xMidYMid meet" viewBox="0 0 640 640" width="640" height="640"><defs><path d="M554.24 40C595.3 40 628.59 73.29 628.59 114.36C628.59 132.57 628.59 115.04 628.59 133.8C628.59 173.36 596.53 205.43 556.97 205.43C450 205.43 200.29 205.43 93.22 205.43C53.94 205.43 22.1 173.59 22.1 134.31C22.1 115.45 22.1 128.03 22.1 108.69C22.1 70.75 52.85 40 90.79 40C198.35 40 447.81 40 554.24 40Z" id="b6bmOs63tH"></path><path d="M552.14 249.61C593.2 249.61 626.49 282.9 626.49 323.97C626.49 342.18 626.49 324.65 626.49 343.41C626.49 382.97 594.43 415.04 554.87 415.04C447.9 415.04 198.19 415.04 91.12 415.04C51.84 415.04 20 383.2 20 343.92C20 325.06 20 337.65 20 318.3C20 280.36 50.75 249.61 88.69 249.61C196.25 249.61 445.71 249.61 552.14 249.61Z" id="a3fiWrOKem"></path><path d="M552.14 464.42C593.2 464.42 626.49 497.71 626.49 538.77C626.49 556.99 626.49 539.46 626.49 558.22C626.49 597.78 594.43 629.84 554.87 629.84C447.9 629.84 198.19 629.84 91.12 629.84C51.84 629.84 20 598 20 558.72C20 539.86 20 552.45 20 533.1C20 495.17 50.75 464.42 88.69 464.42C196.25 464.42 445.71 464.42 552.14 464.42Z" id="b9BrmFxIF"></path></defs><g><g><g><use xlink:href="#b6bmOs63tH" opacity="1" fill="#6ab4ff" fill-opacity="1"></use></g><g><use xlink:href="#a3fiWrOKem" opacity="1" fill="#fb7373" fill-opacity="1"></use></g><g><use xlink:href="#b9BrmFxIF" opacity="1" fill="#56c362" fill-opacity="1"></use></g></g></g></svg>